<svg xmlns="http://www.w3.org/2000/svg" viewBox="0 0 1400 920" data-shell-renderer="kuhul_pi_bridge"><rect width="100%" height="100%" fill="#070b12"></rect><g transform="translate(260.000,240.000)"><g data-shell="orbital_halo"><g data-layer="inner" data-radius="60"><circle cx="42.426" cy="42.426" r="7.400" fill="#1dd1a1" class="glyph-node" data-id="1" data-token="the" data-prob="0.556" data-phi="26.667"></circle></g><g data-layer="mid" data-radius="110"><circle cx="110.000" cy="0.000" r="6.166" fill="#ff6b6b" class="glyph-node" data-id="0" data-token="<BOS>" data-prob="0.133" data-phi="52.000"></circle></g><g data-layer="outer" data-radius="160"><circle cx="-102.430" cy="122.915" r="5.918" fill="#1dd1a1" class="glyph-node" data-id="2" data-token="cat" data-prob="0.100" data-phi="54.000"></circle><circle cx="-113.137" cy="-113.137" r="5.599" fill="#1dd1a1" class="glyph-node" data-id="3" data-token="sat" data-prob="0.069" data-phi="55.867"></circle><circle cx="47.724" cy="-152.717" r="5.703" fill="#feca57" class="glyph-node" data-id="4" data-token="." data-prob="0.078" data-phi="55.333"></circle></g></g></g><g transform="translate(720.000,240.000)"><g data-shell="stack_grid"><g data-block="layer_0" transform="translate(0.000,-30.000)"><polygon points="-10.000,0.000 0.000,-30.000 10.000,0.000 0.000,30.000" class="block-stack" data-tone="0.400"></polygon></g><g data-block="layer_1" transform="translate(27.712,-13.419)"><polygon points="-10.000,0.000 0.000,-29.419 10.000,0.000 0.000,29.419" class="block-stack" data-tone="0.350"></polygon></g><g data-block="layer_2" transform="translate(55.424,3.245)"><polygon points="-10.000,0.000 0.000,-28.755 10.000,0.000 0.000,28.755" class="block-stack" data-tone="0.150"></polygon></g><g data-block="layer_3" transform="translate(83.136,19.912)"><polygon points="-10.000,0.000 0.000,-28.088 10.000,0.000 0.000,28.088" class="block-stack" data-tone="0.100"></polygon></g></g></g><g transform="translate(260.000,720.000)"><g data-shell="tunnel_rail"><g data-rail="left_stream"><rect x="-44.000" y="-40.000" width="8.000" height="4.000" class="packet" data-energy="0.368"></rect><rect x="-44.000" y="-39.600" width="7.947" height="3.973" class="packet" data-energy="0.052"></rect></g><g data-rail="right_stream"><rect x="36.000" y="-39.200" width="7.893" height="3.947" class="packet" data-energy="3.696"></rect><rect x="36.000" y="-38.800" width="7.840" height="3.920" class="packet" data-energy="1.322"></rect></g><g data-rail="top_stream"></g></g></g><g transform="translate(720.000,720.000)"><g data-shell="fractal_tree"><circle cx="0.000" cy="-120.000" r="3.000" class="tree-node" data-id="ROOT" data-depth="0"></circle><line x1="0.000" y1="-120.000" x2="30.642" y2="-145.712" class="tree-branch"></line><circle cx="30.642" cy="-145.712" r="5.114" class="tree-node" data-id="m0" data-depth="1"></circle><line x1="0.000" y1="-120.000" x2="38.922" y2="-129.225" class="tree-branch"></line><circle cx="38.922" cy="-129.225" r="4.954" class="tree-node" data-id="m1" data-depth="1"></circle><line x1="0.000" y1="-120.000" x2="38.922" y2="-110.775" class="tree-branch"></line><circle cx="38.922" cy="-110.775" r="5.322" class="tree-node" data-id="m2" data-depth="1"></circle></g></g><g transform="translate(1180.000,460.000)"><g data-shell="hud_ring"><g data-ring="outer_status" data-radius="140"><path d="M 140.000 0.000 A 140.000 140.000 0 0 1 0.000 140.000" class="hud-segment" data-name="CPU" data-status="ok" data-load="0.400"></path><path d="M 0.000 140.000 A 140.000 140.000 0 0 1 -140.000 0.000" class="hud-segment" data-name="GPU" data-status="warn" data-load="0.700"></path><path d="M -140.000 0.000 A 140.000 140.000 0 0 1 -0.000 -140.000" class="hud-segment" data-name="TPU" data-status="ok" data-load="0.500"></path><path d="M -0.000 -140.000 A 140.000 140.000 0 0 1 140.000 -0.000" class="hud-segment" data-name="RLHF" data-status="ok" data-load="0.300"></path></g><g data-ring="mid_runtime" data-radius="100"><path d="M 100.000 0.000 A 100.000 100.000 0 0 1 0.000 100.000" class="hud-segment" data-name="ASXR" data-status="ok" data-load="0.500"></path><path d="M 0.000 100.000 A 100.000 100.000 0 0 1 -100.000 0.000" class="hud-segment" data-name="ASXR-GPU" data-status="ok" data-load="0.600"></path><path d="M -100.000 0.000 A 100.000 100.000 0 0 1 -0.000 -100.000" class="hud-segment" data-name="TPU-OS" data-status="warn" data-load="0.700"></path><path d="M -0.000 -100.000 A 100.000 100.000 0 0 1 100.000 -0.000" class="hud-segment" data-name="BROWSER" data-status="ok" data-load="0.200"></path></g><g data-ring="inner_core" data-radius="60"><path d="M 60.000 0.000 A 60.000 60.000 0 0 1 0.000 60.000" class="hud-segment" data-name="XJSON" data-status="ok" data-load="0.300"></path><path d="M 0.000 60.000 A 60.000 60.000 0 0 1 -60.000 0.000" class="hud-segment" data-name="K'UHUL" data-status="ok" data-load="0.400"></path><path d="M -60.000 0.000 A 60.000 60.000 0 0 1 -0.000 -60.000" class="hud-segment" data-name="SCXQ2" data-status="ok" data-load="0.200"></path><path d="M -0.000 -60.000 A 60.000 60.000 0 0 1 60.000 -0.000" class="hud-segment" data-name="KLH" data-status="ok" data-load="0.350"></path></g><g class="hud-center"><circle cx="0" cy="0" r="24" data-load="0.400"></circle><text x="0" y="4" text-anchor="middle" font-size="12">MX2LM</text></g></g></g></svg>